<svg xmlns="http://www.w3.org/2000/svg" width="1200" height="800" viewBox="0 0 1200 800">
  <rect width="100%" height="100%" fill="#0f172a"/>
  <g transform="translate(80,60)">
    <rect x="0" y="0" width="1040" height="660" rx="8" fill="#111827" stroke="#334155"/>
    <text x="20" y="40" fill="#e2e8f0" font-size="28" font-family="Geist, sans-serif">User Utility Rising with Network Size (Conceptual)</text>
    <!-- Axes -->
    <line x1="80" y1="600" x2="960" y2="600" stroke="#64748b"/>
    <line x1="80" y1="140" x2="80" y2="600" stroke="#64748b"/>
    <text x="970" y="620" fill="#cbd5e1" font-size="16">Opposite Users</text>
    <text x="15" y="140" fill="#cbd5e1" font-size="16" transform="rotate(-90,15,140)">User Utility</text>
    <!-- Threshold -->
    <line x1="80" y1="360" x2="960" y2="360" stroke="#f59e0b" stroke-dasharray="8,8"/>
    <text x="820" y="340" fill="#f59e0b" font-size="16">Adoption threshold</text>
    <!-- Curves -->
    <path d="M80,580 C250,520 420,490 960,460" fill="none" stroke="#ef4444" stroke-width="3"/>
    <path d="M80,520 C250,420 420,380 960,340" fill="none" stroke="#22c55e" stroke-width="3"/>
    <path d="M80,500 C250,360 420,300 960,260" fill="none" stroke="#38bdf8" stroke-width="3"/>
    <!-- Critical mass marker -->
    <circle cx="740" cy="350" r="6" fill="#22c55e"/>
    <text x="760" y="340" fill="#93c5fd" font-size="16">Critical mass</text>
  </g>
</svg>